<svg xmlns="http://www.w3.org/2000/svg" xmlns:xlink="http://www.w3.org/1999/xlink" width="152.112" height="31.495" viewBox="0 0 152.112 31.495">
  <defs>
    <style>
      .cls-1 {
        fill: none;
      }

      .cls-2 {
        clip-path: url(#clip-path);
      }

      .cls-3 {
        fill: #fff100;
      }
    </style>
    <clipPath id="clip-path">
      <rect id="長方形_3" data-name="長方形 3" class="cls-1" width="152.112" height="31.495"/>
    </clipPath>
  </defs>
  <g id="グループ_4" data-name="グループ 4" transform="translate(0 0)">
    <g id="グループ_3" data-name="グループ 3" class="cls-2" transform="translate(0 0)">
      <path id="パス_13" data-name="パス 13" d="M56.642,20.405a5.786,5.786,0,0,1-1.353,2.312,6.235,6.235,0,0,1-2.409,1.627,8.164,8.164,0,0,1-2.769.465,7,7,0,0,1-2.744-.515,6.86,6.86,0,0,1-2.2-1.494,5.336,5.336,0,0,1-1.069-1.482,6.44,6.44,0,0,1-.528-1.687,13.487,13.487,0,0,1-.181-1.932q-.026-1.031-.025-2.215t.025-2.216a13.487,13.487,0,0,1,.181-1.932,6.459,6.459,0,0,1,.528-1.688,5.346,5.346,0,0,1,1.069-1.481,6.878,6.878,0,0,1,2.19-1.494,6.971,6.971,0,0,1,2.757-.516,7.472,7.472,0,0,1,2.808.49,6.449,6.449,0,0,1,2.062,1.3,6.31,6.31,0,0,1,1.352,1.867,7.987,7.987,0,0,1,.682,2.216H53.409a3.627,3.627,0,0,0-1.108-2,3.259,3.259,0,0,0-2.19-.683,3.111,3.111,0,0,0-1.327.27,2.926,2.926,0,0,0-.966.709,2.629,2.629,0,0,0-.425.632,3.609,3.609,0,0,0-.27.915,10.807,10.807,0,0,0-.142,1.43q-.039.863-.039,2.177c0,.875.013,1.606.039,2.189a10.87,10.87,0,0,0,.142,1.443,3.6,3.6,0,0,0,.27.915,2.629,2.629,0,0,0,.425.632,2.779,2.779,0,0,0,.966.7,3.248,3.248,0,0,0,1.327.258,3.758,3.758,0,0,0,1.469-.271,2.975,2.975,0,0,0,1.082-.76,3.231,3.231,0,0,0,.631-1.121,4.327,4.327,0,0,0,.193-1.326v-.7H50.111V14.426h6.931v2.686a11.442,11.442,0,0,1-.4,3.293" transform="translate(-1.211 -0.172)"/>
      <path id="パス_14" data-name="パス 14" d="M70.911,24.659l-3.582-7.317H64.753v7.317H61.172V6.315H68.36a6.585,6.585,0,0,1,2.5.451,5.713,5.713,0,0,1,1.88,1.21,5.046,5.046,0,0,1,1.172,1.778,5.91,5.91,0,0,1,.4,2.177,5.294,5.294,0,0,1-.27,1.752,4.909,4.909,0,0,1-.735,1.378,4.809,4.809,0,0,1-1.068,1.03,5.109,5.109,0,0,1-1.275.657l4.1,7.91Zm-.889-14.483a2.652,2.652,0,0,0-1.894-.667H64.753v4.819h3.375a2.652,2.652,0,0,0,1.894-.667,2.28,2.28,0,0,0,.709-1.743,2.282,2.282,0,0,0-.709-1.742" transform="translate(-1.709 -0.176)"/>
      <path id="パス_15" data-name="パス 15" d="M91.4,17.7a12.285,12.285,0,0,1-.193,1.932,6.827,6.827,0,0,1-.541,1.688A5.346,5.346,0,0,1,89.592,22.8a6.581,6.581,0,0,1-4.947,2.009,7.038,7.038,0,0,1-2.782-.515,6.894,6.894,0,0,1-2.19-1.494A5.346,5.346,0,0,1,78.6,21.318a6.458,6.458,0,0,1-.528-1.687A13.474,13.474,0,0,1,77.9,17.7c-.017-.686-.025-1.426-.025-2.215s.008-1.529.025-2.216a13.488,13.488,0,0,1,.181-1.932A6.458,6.458,0,0,1,78.6,9.647a5.346,5.346,0,0,1,1.069-1.481,6.894,6.894,0,0,1,2.19-1.494,7.038,7.038,0,0,1,2.782-.515,6.581,6.581,0,0,1,4.947,2.009,5.346,5.346,0,0,1,1.069,1.481,6.827,6.827,0,0,1,.541,1.688,12.3,12.3,0,0,1,.193,1.932q.025,1.031.025,2.216c0,.789-.009,1.529-.025,2.215M87.8,13.306a10.807,10.807,0,0,0-.142-1.43,3.255,3.255,0,0,0-.283-.915,2.968,2.968,0,0,0-.438-.632,2.916,2.916,0,0,0-.966-.709,3.108,3.108,0,0,0-1.327-.27,3.2,3.2,0,0,0-1.34.27,2.881,2.881,0,0,0-.979.709,2.6,2.6,0,0,0-.425.632,3.605,3.605,0,0,0-.271.915,11.145,11.145,0,0,0-.142,1.43q-.038.863-.038,2.177t.038,2.176a11.145,11.145,0,0,0,.142,1.43A3.605,3.605,0,0,0,81.9,20a2.6,2.6,0,0,0,.425.632,2.881,2.881,0,0,0,.979.709,3.2,3.2,0,0,0,1.34.27,3.108,3.108,0,0,0,1.327-.27,2.916,2.916,0,0,0,.966-.709A2.968,2.968,0,0,0,87.377,20a3.255,3.255,0,0,0,.283-.915,10.807,10.807,0,0,0,.142-1.43q.039-.863.039-2.176T87.8,13.306" transform="translate(-2.175 -0.172)"/>
      <path id="パス_16" data-name="パス 16" d="M111.157,24.659h-2.989l-3.375-11.13-3.375,11.13H98.429L93.535,6.314h3.736L100.1,17.883l3.35-11.569h2.68l3.349,11.569,2.86-11.569h3.736Z" transform="translate(-2.613 -0.176)"/>
      <path id="パス_17" data-name="パス 17" d="M137.915,21.026a6.051,6.051,0,0,1-1.444,2.023,6.586,6.586,0,0,1-2.138,1.3,7.756,7.756,0,0,1-5.283,0,6.592,6.592,0,0,1-2.137-1.3,6.024,6.024,0,0,1-1.444-2.023,6.452,6.452,0,0,1-.528-2.654V6.315h3.58V18.244a3.456,3.456,0,0,0,.851,2.486,3.059,3.059,0,0,0,2.319.889,3.1,3.1,0,0,0,2.331-.889,3.415,3.415,0,0,0,.863-2.486V6.315h3.556V18.372a6.451,6.451,0,0,1-.528,2.654" transform="translate(-3.491 -0.176)"/>
      <path id="パス_18" data-name="パス 18" d="M155.693,14.237a5.338,5.338,0,0,1-1.2,1.829,5.63,5.63,0,0,1-1.906,1.236,6.758,6.758,0,0,1-2.538.451h-3.53v6.9H142.94V6.315h7.111a6.758,6.758,0,0,1,2.538.45A5.659,5.659,0,0,1,154.495,8a5.342,5.342,0,0,1,1.2,1.83,6.092,6.092,0,0,1,0,4.405m-3.878-4.032a2.657,2.657,0,0,0-1.945-.7h-3.35v5.025h3.35a2.683,2.683,0,0,0,1.945-.683,2.4,2.4,0,0,0,.709-1.816,2.448,2.448,0,0,0-.709-1.829" transform="translate(-3.993 -0.176)"/>
      <path id="パス_19" data-name="パス 19" d="M32.161,4.175a4.176,4.176,0,1,0-4.176,4.176,4.177,4.177,0,0,0,4.176-4.176" transform="translate(-0.665 0)"/>
      <path id="パス_20" data-name="パス 20" d="M32.161,16.079a4.176,4.176,0,1,0-4.176,4.177,4.177,4.177,0,0,0,4.176-4.177" transform="translate(-0.665 -0.333)"/>
      <path id="パス_21" data-name="パス 21" d="M20.256,4.175A4.176,4.176,0,1,0,16.08,8.351a4.177,4.177,0,0,0,4.176-4.176" transform="translate(-0.333 0)"/>
      <path id="パス_22" data-name="パス 22" class="cls-3" d="M20.256,16.079a4.176,4.176,0,1,0-4.176,4.177,4.177,4.177,0,0,0,4.176-4.177" transform="translate(-0.333 -0.333)"/>
      <path id="パス_23" data-name="パス 23" d="M8.352,16.079a4.176,4.176,0,1,0-4.176,4.177,4.177,4.177,0,0,0,4.176-4.177" transform="translate(0 -0.333)"/>
      <path id="パス_24" data-name="パス 24" d="M8.352,27.984A4.176,4.176,0,1,0,4.176,32.16a4.177,4.177,0,0,0,4.176-4.176" transform="translate(0 -0.665)"/>
    </g>
  </g>
</svg>
